<?xml version="1.0" encoding="utf-8"?>
<!-- Generator: Adobe Illustrator 19.2.1, SVG Export Plug-In . SVG Version: 6.00 Build 0)  -->
<svg version="1.1" id="layer" xmlns="http://www.w3.org/2000/svg" xmlns:xlink="http://www.w3.org/1999/xlink" x="10px" y="0px"
	 viewBox="0 0 652 652" style="enable-background:new 0 0 652 652;" xml:space="preserve">
<style type="text/css">
	.st0{fill:#FFEC0F;}
</style>
<rect x="20.3" y="242.7" class="st0" width="600" height="157.1"/>
<g>
	<path d="M67.9,328.5h35.3v17.8c0,0,1,4.2,5.2,3.7c4,0.2,6.3-0.1,6.3-0.1s3.5,0,4.2-3.7v-60.7H153v66.8c0,0,1,13.6-8.7,15.6H79
		c0,0-11.2-2.1-11.2-13.6C67.8,343,67.9,328.5,67.9,328.5"/>
	<rect x="476.3" y="286" width="48.5" height="20.1"/>
	<rect x="284.3" y="286" width="36" height="80.5"/>
	<rect x="328" y="286" width="36" height="80.5"/>
	<rect x="375.4" y="286" width="36" height="80.5"/>
	<rect x="450.5" y="286" width="36" height="80.5"/>
	<rect x="536.7" y="286" width="36" height="80.5"/>
	<rect x="480.5" y="315.9" width="38.7" height="20.9"/>
	<rect x="419.1" y="314.6" width="22.5" height="23"/>
	<rect x="318.7" y="313.8" width="11.4" height="23"/>
	<path d="M167.8,285.4h76.6c0,0,9.6,1.3,9.6,11.5v17.8c0,0,0.1,9.9-8.1,9.6c0,0,8.1,1.3,8.1,10.3v20.2c0,0-0.2,13.2-10.8,13.2h-75.3
		V285.4"/>
	<path class="st0" d="M216.9,300.4h-14.8v17.2H217C217,317.6,225.3,310,216.9,300.4"/>
	<path class="st0" d="M216.9,334.1h-14.8v17.2H217C217,351.3,225.3,343.7,216.9,334.1"/>
</g>
</svg>
